<svg width="220" height="48" viewBox="0 0 220 48" fill="none" xmlns="http://www.w3.org/2000/svg">
  <!-- Icon -->
  <defs>
    <linearGradient id="iconBg" x1="0%" y1="0%" x2="100%" y2="100%">
      <stop offset="0%" stop-color="#3B82F6"/>
      <stop offset="100%" stop-color="#2563EB"/>
    </linearGradient>
    <linearGradient id="pulse" x1="0%" y1="0%" x2="100%" y2="0%">
      <stop offset="0%" stop-color="#10B981"/>
      <stop offset="100%" stop-color="#34D399"/>
    </linearGradient>
  </defs>
  
  <!-- Icon background -->
  <rect width="48" height="48" rx="12" fill="url(#iconBg)"/>
  
  <!-- Graph bars -->
  <rect x="10" y="26" width="3" height="12" rx="1.5" fill="white" opacity="0.9"/>
  <rect x="16" y="22" width="3" height="16" rx="1.5" fill="white" opacity="0.9"/>
  <rect x="22" y="16" width="3" height="22" rx="1.5" fill="white" opacity="0.9"/>
  <rect x="28" y="20" width="3" height="18" rx="1.5" fill="white" opacity="0.9"/>
  <rect x="34" y="24" width="3" height="14" rx="1.5" fill="white" opacity="0.9"/>
  
  <!-- Pulse line -->
  <path d="M8 18 L12 18 L14 12 L16 24 L18 16 L22 14 L26 20 L30 16 L34 18 L38 14 L40 16" 
        stroke="url(#pulse)" 
        stroke-width="2.5" 
        stroke-linecap="round" 
        stroke-linejoin="round" 
        fill="none"/>
  
  <!-- Text: Portfolio (Light) -->
  <text x="58" y="32" font-family="Inter, system-ui, -apple-system, sans-serif" font-size="20" font-weight="700" fill="#F8FAFC" letter-spacing="-0.02em">Portfolio</text>
  
  <!-- Text: Pulse (Gradient) -->
  <defs>
    <linearGradient id="textGradient" x1="0%" y1="0%" x2="100%" y2="0%">
      <stop offset="0%" stop-color="#3B82F6"/>
      <stop offset="100%" stop-color="#60A5FA"/>
    </linearGradient>
  </defs>
  <text x="153" y="32" font-family="Inter, system-ui, -apple-system, sans-serif" font-size="20" font-weight="700" fill="url(#textGradient)" letter-spacing="-0.02em">Pulse</text>
</svg>

